<svg width="527" height="500" viewBox="0 0 527 500" fill="none" xmlns="http://www.w3.org/2000/svg">
<g clip-path="url(#clip0_2_2)">
<rect width="527" height="500" />
<path d="M11.6933 321.786L2.41992 333.571L2.77659 335L261.717 470.357L263.857 471.071L266.353 470.357L524.937 334.286L516.377 322.143L514.593 321.786C508.887 321.786 352.667 382.857 322.35 400.714C291.677 417.5 269.563 443.571 263.5 455C257.793 455 238.89 427.5 191.097 403.929C160.067 388.571 11.6933 321.786 11.6933 321.786Z" fill="#072C25"/>
<path d="M262 455C241.67 437.857 224.74 421.857 190.5 404C168.03 392.214 42.3667 341.071 11.6934 321.786L12 321.5C39.1067 331.143 167.547 385.929 192 400.5C223 414.5 245.593 436.071 262 455Z" fill="#3F685B"/>
<path d="M262.43 2.14286C254.94 22.8571 247.093 41.7857 225.693 53.5714C205.363 65 162.92 73.9286 136.527 88.5714C99.79 108.929 77.32 128.929 59.13 157.5C41.2967 186.071 27.3867 221.786 31.31 288.929L32.38 290.357C37.3733 292.5 84.4533 296.786 125.827 311.071C118.337 299.643 108.35 259.643 120.477 223.214C131.533 190 160.78 161.429 195.733 143.929C237.107 123.571 257.437 94.2857 261.36 44.6429L263.143 2.14286H262.43Z" fill="url(#paint0_linear_2_2)"/>
<path d="M33.4499 287.857C29.8833 236.071 43.08 197.143 55.5633 175.714C73.04 144.286 99.0766 115.357 144.73 91.7857C179.327 74.6429 215.35 68.2143 232.47 54.6429L235.323 52.5C211.427 66.0714 177.9 71.0714 146.87 86.0714C105.497 105.714 77.3199 129.286 55.9199 164.643C40.2266 190.714 27.0299 229.286 31.3099 289.286L32.7366 290.357L33.4499 287.857Z" fill="#355B4F"/>
<path d="M102.643 303.214C96.2233 274.643 99.4333 230.714 124.757 198.214C141.877 175.714 165.773 156.786 196.09 141.786L195.733 139.286C170.053 148.571 143.66 165.357 122.973 190.357C104.07 213.571 89.4467 253.571 95.51 301.429L102.643 303.214Z" fill="#1A3C33"/>
<path d="M33.4499 287.857C29.8832 239.643 44.1499 197.143 54.8499 178.214C74.8232 141.071 105.14 109.643 154.003 87.1429C186.817 72.8571 219.63 66.4286 233.897 54.6429C249.233 43.5714 257.08 26.7857 261.36 14.6429V6.07143C254.583 22.8571 247.807 37.5 232.47 48.9286C214.993 61.7857 181.823 68.9286 151.15 81.7857C115.127 97.5 78.3899 124.286 55.9199 164.286C40.2265 190.714 27.7432 226.071 31.3099 287.857H33.4499Z" fill="url(#paint1_linear_2_2)"/>
<path d="M144.373 498.214L203.223 448.929L247.093 470.357L182.893 498.214H144.373Z" fill="#072C25"/>
<path d="M203.223 448.929L144.373 497.857L145.443 498.571L203.937 451.071L243.527 470L247.093 470.357L203.223 448.929Z" fill="#1A3C33"/>
<path d="M144.373 498.214H182.893L247.093 470.357L245.5 469.5L182.893 496.786L147 496L144.373 498.214Z" fill="#3F685B"/>
<path d="M404.383 310.357L421.503 303.571C429.707 286.429 430.777 234.286 399.747 192.5C385.48 173.214 365.863 157.143 349.457 149.643C387.977 172.857 412.943 211.071 414.013 261.071C414.013 283.214 407.95 303.571 404.383 310.357Z" fill="#9C6D23"/>
<path d="M263.5 0C272.06 27.1429 279.55 42.5 297.027 52.5C319.853 66.0714 345.89 68.2143 370.143 80.3571C400.46 94.2857 491.41 141.071 491.41 276.786L491.053 288.214L488.913 290C462.52 294.643 438.623 300 404.383 310.357C412.943 294.286 415.44 272.143 412.943 250C407.95 209.643 382.27 169.643 330.91 143.929C319.853 138.571 310.58 133.571 303.09 126.786C273.13 103.571 267.067 73.9286 263.5 33.9286V0Z" fill="url(#paint2_linear_2_2)"/>
<path d="M263.5 0C270.277 23.9286 277.41 39.6429 290.25 50C307.37 63.2143 334.12 68.9286 349.457 74.6429C398.32 90.7143 483.92 139.286 491.053 255.714C483.207 150.357 415.083 100 370.5 83.9286C345.533 73.9286 315.573 68.2143 297.027 55.7143C279.55 45.7143 270.277 28.9286 263.5 0Z" fill="#FFDF7B"/>
<path d="M263.5 0C268.85 40.7143 273.13 101.429 326.63 131.071C347.673 142.5 426.497 168.214 432.917 260.357C424 184.286 365.863 153.571 336.26 140.357C283.473 120 264.927 72.8571 262.787 0L263.5 0Z" fill="#FFDF7B"/>
<path d="M428.993 300C440.05 296.786 468.227 289.286 485.347 287.857L484.277 290.357L428.28 302.857L428.993 300Z" fill="url(#paint3_linear_2_2)"/>
<path d="M264.927 455C273.13 450 290.963 428.571 324.133 411.786C356.947 394.643 507.46 326.429 516.02 322.857L525.65 333.929L265.283 470.357L263.5 471.071L264.927 455Z" fill="url(#paint4_linear_2_2)"/>
<path d="M265.283 455L268.493 453.929C285.257 438.929 304.873 422.857 330.91 409.286C354.093 396.786 484.277 337.143 516.02 322.857L525.65 333.929L526.007 333.571L516.377 321.429C509.243 321.429 371.513 375.357 328 397.5C299 412.257 273.5 436.5 263.5 455H265.283Z" fill="#3F685B"/>
<path d="M278.123 470.357L324.49 448.929L381.913 497.5L345.177 498.214L278.123 470.357Z" fill="url(#paint5_linear_2_2)"/>
<path d="M278.123 470.357L324.49 448.929L381.913 497.5L380.13 497.857L323.777 450.357L282.76 469.286L278.123 470.357Z" fill="#1A3C33"/>
<path d="M278.123 470.357L344.463 497.857L381.2 498.214L381.913 497.5L347.317 496.786L279.55 470L278.123 470.357Z" fill="#3F685B"/>
<path d="M8.4834 294.286C14.9034 294.286 125.827 308.571 182.537 337.857C226.763 359.286 247.807 381.429 257.437 400.714H256.01C219.987 377.143 188.243 358.571 140.093 340.714C101.217 325.714 14.1901 298.571 8.4834 295.357V294.286Z" fill="url(#paint6_linear_2_2)"/>
<path d="M8.4834 294.286C25.6034 295.357 120.477 312.857 167.2 333.929C208.573 352.143 238.177 374.286 257.437 400.714C237.107 380 217.847 363.929 181.11 346.071C137.24 324.643 56.2767 303.571 8.4834 294.286Z" fill="#FFDF7B"/>
<path d="M43.4368 317.143C60.5568 318.214 140.45 341.786 173.977 359.286C205.363 373.571 233.54 392.5 256.367 425C238.89 409.286 211.783 392.857 179.327 378.214C140.45 360.357 49.8568 322.857 43.4368 317.143Z" fill="#F4CD6A"/>
<path d="M43.4368 317.143C51.2834 316.071 115.84 333.571 166.487 355.714C210.357 374.643 237.107 395 256.367 424.643C233.54 407.5 218.203 396.429 181.11 378.929C132.96 357.143 45.9334 321.429 43.4368 317.143Z" fill="url(#paint7_linear_2_2)"/>
<path d="M43.4368 317.143C54.8501 319.643 126.183 345 154.36 357.143C184.32 369.286 229.26 391.429 256.367 424.643C230.687 403.214 208.573 389.286 181.11 377.143C146.87 362.143 49.8568 321.786 43.4368 317.143Z" fill="#FFDF7B"/>
<path d="M269.563 400.714V399.643C280.977 385.357 312.363 362.143 336.26 349.643C379.06 327.143 475.717 296.786 518.16 294.643L516.733 296.071C476.073 308.929 406.523 322.857 348.743 349.643C319.853 362.5 293.46 381.786 269.563 400.714Z" fill="#FFDF7B"/>
<path d="M269.207 400.714H270.277C295.6 385.357 322.35 367.857 352.667 355C392.257 337.857 453.96 317.5 518.16 295.357L517.09 294.643C484.633 296.786 388.69 319.286 338.043 344.643C312.363 357.5 284.9 378.929 269.207 400.714Z" fill="url(#paint8_linear_2_2)"/>
<path d="M269.92 426.429C292.39 397.857 319.14 381.429 342.68 370C373.71 353.571 457.883 321.429 484.99 317.143L483.207 318.571L373.71 364.643C320.21 387.5 299.167 399.643 270.99 425.357L269.92 426.429Z" fill="url(#paint9_linear_2_2)"/>
<path d="M269.92 426.429C289.893 415.714 305.943 398.214 349.457 380C379.06 367.5 474.29 327.143 484.99 317.143L365.863 367.857C329.84 382.857 291.677 407.5 269.92 426.429Z" fill="#F3C461"/>
<path d="M269.92 426.429C298.81 397.857 336.617 381.786 350.883 375.357L484.99 317.143C465.373 325.357 398.677 351.429 374.423 362.143C341.967 375.357 301.307 398.571 269.92 426.429Z" fill="#FFDF7B"/>
<path d="M270.277 399.643C291.677 381.786 317.357 362.857 344.107 351.429C376.92 337.143 450.393 310.357 518.16 294.643C486.773 305.714 402.957 325.357 345.177 350C319.14 360.714 287.04 384.286 270.277 399.643Z" fill="#FFDF7B"/>
<path d="M263.5 0C267.423 44.2857 275.627 100.714 322.35 128.929C345.89 142.857 417.58 164.643 429.707 248.571C414.727 184.643 368.717 157.5 335.19 141.786C280.263 119.286 265.283 78.2143 262.787 0L263.5 0Z" fill="#FFDF7B"/>
<path d="M404.5 310.5L419.5 306C430.2 279.571 420.447 210.429 380.5 174C408.32 208.643 420.907 252.643 404.5 310.5Z" fill="#E09D34"/>
</g>
<defs>
<linearGradient id="paint0_linear_2_2" x1="30.8178" y1="131.929" x2="262.466" y2="131.929" gradientUnits="userSpaceOnUse">
<stop stop-color="#0E3730"/>
<stop offset="1" stop-color="#234F45"/>
</linearGradient>
<linearGradient id="paint1_linear_2_2" x1="33.2002" y1="123.321" x2="261.253" y2="123.321" gradientUnits="userSpaceOnUse">
<stop stop-color="#0E3730"/>
<stop offset="1" stop-color="#234F45"/>
</linearGradient>
<linearGradient id="paint2_linear_2_2" x1="262.573" y1="144.964" x2="491.41" y2="144.964" gradientUnits="userSpaceOnUse">
<stop offset="0.1034" stop-color="#F3CE72"/>
<stop offset="0.5385" stop-color="#F8D670"/>
<stop offset="1" stop-color="#FFE391"/>
</linearGradient>
<linearGradient id="paint3_linear_2_2" x1="262.68" y1="290.036" x2="485.347" y2="290.036" gradientUnits="userSpaceOnUse">
<stop stop-color="#E6B345"/>
<stop offset="1" stop-color="#FFDF7B"/>
</linearGradient>
<linearGradient id="paint4_linear_2_2" x1="269.385" y1="385.357" x2="484.99" y2="385.357" gradientUnits="userSpaceOnUse">
<stop stop-color="#072C25"/>
<stop offset="1" stop-color="#1A3C33"/>
</linearGradient>
<linearGradient id="paint5_linear_2_2" x1="278.195" y1="474.643" x2="381.913" y2="474.643" gradientUnits="userSpaceOnUse">
<stop stop-color="#1A3C33"/>
<stop offset="1" stop-color="#072C25"/>
</linearGradient>
<linearGradient id="paint6_linear_2_2" x1="8.35857" y1="306.571" x2="257.401" y2="306.571" gradientUnits="userSpaceOnUse">
<stop stop-color="#C99028"/>
<stop offset="0.5169" stop-color="#F7CF6B"/>
<stop offset="1" stop-color="#F3C461"/>
</linearGradient>
<linearGradient id="paint7_linear_2_2" x1="43.4011" y1="371.071" x2="256.402" y2="371.071" gradientUnits="userSpaceOnUse">
<stop stop-color="#C99028"/>
<stop offset="0.5169" stop-color="#F7CF6B"/>
<stop offset="1" stop-color="#F3C461"/>
</linearGradient>
<linearGradient id="paint8_linear_2_2" x1="269.385" y1="366.786" x2="484.99" y2="366.786" gradientUnits="userSpaceOnUse">
<stop stop-color="#E6B345"/>
<stop offset="1" stop-color="#FFDF7B"/>
</linearGradient>
<linearGradient id="paint9_linear_2_2" x1="269.956" y1="387.5" x2="484.99" y2="387.5" gradientUnits="userSpaceOnUse">
<stop stop-color="#E6B345"/>
<stop offset="1" stop-color="#FFDF7B"/>
</linearGradient>
<clipPath id="clip0_2_2">
<rect width="527" height="500" fill="white"/>
</clipPath>
</defs>
</svg>
